<svg xmlns="http://www.w3.org/2000/svg" width="855.00" height="658.18" viewBox="0 0 855.00 658.18">
<rect width="855.00" height="658.18" fill="#F6D9A8"/>
<polygon points="95.09,0.0 47.55,82.35 -47.55,82.35 -95.09,0.0 -47.55,-82.35 47.55,-82.35" fill="#F2AFC0"/>
<polygon points="95.09,658.18 47.55,740.53 -47.55,740.53 -95.09,658.18 -47.55,575.82 47.55,575.82" fill="#F2AFC0"/>
<polygon points="950.1,0.0 902.55,82.35 807.45,82.35 759.9,0.0 807.45,-82.35 902.55,-82.35" fill="#F2AFC0"/>
<polygon points="950.1,658.18 902.55,740.53 807.45,740.53 759.9,658.18 807.45,575.82 902.55,575.82" fill="#F2AFC0"/>
<polygon points="95.09,164.54 47.55,246.9 -47.55,246.9 -95.09,164.54 -47.55,82.19 47.55,82.19" fill="#D9AFC7"/>
<polygon points="95.09,822.72 47.55,905.08 -47.55,905.08 -95.09,822.72 -47.55,740.37 47.55,740.37" fill="#D9AFC7"/>
<polygon points="950.1,164.54 902.55,246.9 807.45,246.9 759.9,164.54 807.45,82.19 902.55,82.19" fill="#D9AFC7"/>
<polygon points="950.1,822.72 902.55,905.08 807.45,905.08 759.9,822.72 807.45,740.37 902.55,740.37" fill="#D9AFC7"/>
<polygon points="95.09,329.09 47.55,411.44 -47.55,411.44 -95.09,329.09 -47.55,246.73 47.55,246.73" fill="#F2AFC0"/>
<polygon points="950.1,329.09 902.55,411.44 807.45,411.44 759.9,329.09 807.45,246.73 902.55,246.73" fill="#F2AFC0"/>
<polygon points="95.09,493.63 47.55,575.99 -47.55,575.99 -95.09,493.63 -47.55,411.28 47.55,411.28" fill="#F6D9A8"/>
<polygon points="95.09,-164.54 47.55,-82.19 -47.55,-82.19 -95.09,-164.54 -47.55,-246.9 47.55,-246.9" fill="#F6D9A8"/>
<polygon points="950.1,493.63 902.55,575.99 807.45,575.99 759.9,493.63 807.45,411.28 902.55,411.28" fill="#F6D9A8"/>
<polygon points="950.1,-164.54 902.55,-82.19 807.45,-82.19 759.9,-164.54 807.45,-246.9 902.55,-246.9" fill="#F6D9A8"/>
<polygon points="237.59,82.27 190.05,164.63 94.95,164.63 47.41,82.27 94.95,-0.08 190.05,-0.08" fill="#D9AFC7"/>
<polygon points="237.59,740.45 190.05,822.81 94.95,822.81 47.41,740.45 94.95,658.1 190.05,658.1" fill="#D9AFC7"/>
<polygon points="1092.6,82.27 1045.05,164.63 949.95,164.63 902.4,82.27 949.95,-0.08 1045.05,-0.08" fill="#D9AFC7"/>
<polygon points="1092.6,740.45 1045.05,822.81 949.95,822.81 902.4,740.45 949.95,658.1 1045.05,658.1" fill="#D9AFC7"/>
<polygon points="237.59,246.82 190.05,329.17 94.95,329.17 47.41,246.82 94.95,164.46 190.05,164.46" fill="#F6D9A8"/>
<polygon points="1092.6,246.82 1045.05,329.17 949.95,329.17 902.4,246.82 949.95,164.46 1045.05,164.46" fill="#F6D9A8"/>
<polygon points="237.59,411.36 190.05,493.72 94.95,493.72 47.41,411.36 94.95,329.01 190.05,329.01" fill="#F6D9A8"/>
<polygon points="1092.6,411.36 1045.05,493.72 949.95,493.72 902.4,411.36 949.95,329.01 1045.05,329.01" fill="#F6D9A8"/>
<polygon points="237.59,575.91 190.05,658.26 94.95,658.26 47.41,575.91 94.95,493.55 190.05,493.55" fill="#F2AFC0"/>
<polygon points="237.59,-82.27 190.05,0.08 94.95,0.08 47.41,-82.27 94.95,-164.63 190.05,-164.63" fill="#F2AFC0"/>
<polygon points="1092.6,575.91 1045.05,658.26 949.95,658.26 902.4,575.91 949.95,493.55 1045.05,493.55" fill="#F2AFC0"/>
<polygon points="1092.6,-82.27 1045.05,0.08 949.95,0.08 902.4,-82.27 949.95,-164.63 1045.05,-164.63" fill="#F2AFC0"/>
<polygon points="380.09,0.0 332.55,82.35 237.45,82.35 189.91,0.0 237.45,-82.35 332.55,-82.35" fill="#F6D9A8"/>
<polygon points="380.09,658.18 332.55,740.53 237.45,740.53 189.91,658.18 237.45,575.82 332.55,575.82" fill="#F6D9A8"/>
<polygon points="380.09,164.54 332.55,246.9 237.45,246.9 189.91,164.54 237.45,82.19 332.55,82.19" fill="#F2AFC0"/>
<polygon points="380.09,822.72 332.55,905.08 237.45,905.08 189.91,822.72 237.45,740.37 332.55,740.37" fill="#F2AFC0"/>
<polygon points="380.09,329.09 332.55,411.44 237.45,411.44 189.91,329.09 237.45,246.73 332.55,246.73" fill="#F6D9A8"/>
<polygon points="380.09,493.63 332.55,575.99 237.45,575.99 189.91,493.63 237.45,411.28 332.55,411.28" fill="#F6D9A8"/>
<polygon points="380.09,-164.54 332.55,-82.19 237.45,-82.19 189.91,-164.54 237.45,-246.9 332.55,-246.9" fill="#F6D9A8"/>
<polygon points="522.6,82.27 475.05,164.63 379.95,164.63 332.41,82.27 379.95,-0.08 475.05,-0.08" fill="#9AD9CC"/>
<polygon points="522.6,740.45 475.05,822.81 379.95,822.81 332.41,740.45 379.95,658.1 475.05,658.1" fill="#9AD9CC"/>
<polygon points="522.6,246.82 475.05,329.17 379.95,329.17 332.41,246.82 379.95,164.46 475.05,164.46" fill="#F6D9A8"/>
<polygon points="522.6,411.36 475.05,493.72 379.95,493.72 332.41,411.36 379.95,329.01 475.05,329.01" fill="#F2AFC0"/>
<polygon points="522.6,575.91 475.05,658.26 379.95,658.26 332.41,575.91 379.95,493.55 475.05,493.55" fill="#D9AFC7"/>
<polygon points="522.6,-82.27 475.05,0.08 379.95,0.08 332.41,-82.27 379.95,-164.63 475.05,-164.63" fill="#D9AFC7"/>
<polygon points="665.1,0.0 617.55,82.35 522.45,82.35 474.91,0.0 522.45,-82.35 617.55,-82.35" fill="#F6D9A8"/>
<polygon points="665.1,658.18 617.55,740.53 522.45,740.53 474.91,658.18 522.45,575.82 617.55,575.82" fill="#F6D9A8"/>
<polygon points="665.1,164.54 617.55,246.9 522.45,246.9 474.91,164.54 522.45,82.19 617.55,82.19" fill="#9AD9CC"/>
<polygon points="665.1,822.72 617.55,905.08 522.45,905.08 474.91,822.72 522.45,740.37 617.55,740.37" fill="#9AD9CC"/>
<polygon points="665.1,329.09 617.55,411.44 522.45,411.44 474.91,329.09 522.45,246.73 617.55,246.73" fill="#F6D9A8"/>
<polygon points="665.1,493.63 617.55,575.99 522.45,575.99 474.91,493.63 522.45,411.28 617.55,411.28" fill="#F6D9A8"/>
<polygon points="665.1,-164.54 617.55,-82.19 522.45,-82.19 474.91,-164.54 522.45,-246.9 617.55,-246.9" fill="#F6D9A8"/>
<polygon points="807.6,82.27 760.05,164.63 664.95,164.63 617.4,82.27 664.95,-0.08 760.05,-0.08" fill="#D9AFC7"/>
<polygon points="807.6,740.45 760.05,822.81 664.95,822.81 617.4,740.45 664.95,658.1 760.05,658.1" fill="#D9AFC7"/>
<polygon points="-47.41,82.27 -94.95,164.63 -190.05,164.63 -237.59,82.27 -190.05,-0.08 -94.95,-0.08" fill="#D9AFC7"/>
<polygon points="-47.41,740.45 -94.95,822.81 -190.05,822.81 -237.59,740.45 -190.05,658.1 -94.95,658.1" fill="#D9AFC7"/>
<polygon points="807.6,246.82 760.05,329.17 664.95,329.17 617.4,246.82 664.95,164.46 760.05,164.46" fill="#F6D9A8"/>
<polygon points="-47.41,246.82 -94.95,329.17 -190.05,329.17 -237.59,246.82 -190.05,164.46 -94.95,164.46" fill="#F6D9A8"/>
<polygon points="807.6,411.36 760.05,493.72 664.95,493.72 617.4,411.36 664.95,329.01 760.05,329.01" fill="#D9AFC7"/>
<polygon points="-47.41,411.36 -94.95,493.72 -190.05,493.72 -237.59,411.36 -190.05,329.01 -94.95,329.01" fill="#D9AFC7"/>
<polygon points="807.6,575.91 760.05,658.26 664.95,658.26 617.4,575.91 664.95,493.55 760.05,493.55" fill="#F6D9A8"/>
<polygon points="807.6,-82.27 760.05,0.08 664.95,0.08 617.4,-82.27 664.95,-164.63 760.05,-164.63" fill="#F6D9A8"/>
<polygon points="-47.41,575.91 -94.95,658.26 -190.05,658.26 -237.59,575.91 -190.05,493.55 -94.95,493.55" fill="#F6D9A8"/>
<polygon points="-47.41,-82.27 -94.95,0.08 -190.05,0.08 -237.59,-82.27 -190.05,-164.63 -94.95,-164.63" fill="#F6D9A8"/>
</svg>